<svg height='200' width='200'  fill="#000000" xmlns="http://www.w3.org/2000/svg" xmlns:xlink="http://www.w3.org/1999/xlink" version="1.1" x="0px" y="0px" viewBox="0 0 100 100" enable-background="new 0 0 100 100" xml:space="preserve"><path fill="#000000" d="M598.322,661.412c-13.824,0-25.027,11.205-25.027,25.027s11.203,25.027,25.027,25.027  c13.822,0,25.025-11.205,25.025-25.027S612.145,661.412,598.322,661.412z M598.322,705.9c-10.748,0-19.463-8.711-19.463-19.461  s8.715-19.461,19.463-19.461s19.463,8.711,19.463,19.461S609.07,705.9,598.322,705.9z M595.77,697.48h4.33v-3.68h-4.33V697.48z   M598.316,675.73c-2.043,0-3.699,0.5-4.971,1.502c-1.271,1-1.895,2.443-1.863,4.328l0.029,0.09h4.184  c0.01-0.834,0.268-1.467,0.771-1.9c0.506-0.432,1.123-0.646,1.85-0.646c0.883,0,1.562,0.254,2.039,0.764  c0.475,0.516,0.715,1.221,0.715,2.123c0,0.812-0.209,1.551-0.627,2.207c-0.416,0.66-0.975,1.273-1.67,1.842  c-1.189,0.914-1.982,1.689-2.381,2.326c-0.398,0.639-0.602,1.646-0.609,3.021h4.285c0-0.816,0.094-1.457,0.279-1.924  c0.188-0.467,0.58-0.928,1.18-1.391c1.1-0.717,2.014-1.605,2.746-2.668c0.73-1.057,1.096-2.213,1.096-3.457  c0-1.916-0.625-3.432-1.879-4.545C602.24,676.287,600.516,675.73,598.316,675.73z"></path><path fill="none" d="M65,11.996H35c-1.378,0-2.5,1.122-2.5,2.5V76.5c0,1.379,1.122,2.5,2.5,2.5h19.779v-5.354  c0-2.437,1.131-5.846,3.228-7.438l2.729-2.601h-7.428c-3.855,0-6.992-3.137-6.992-6.992V55.6c0-3.855,3.136-6.992,6.991-6.992H67.5  V14.496C67.5,13.118,66.379,11.996,65,11.996z"></path><path fill="none" d="M65,11.996H35c-1.378,0-2.5,1.122-2.5,2.5V76.5c0,1.379,1.122,2.5,2.5,2.5h19.779v-5.354  c0-2.437,1.131-5.846,3.228-7.438l2.729-2.601h-7.428c-3.855,0-6.992-3.137-6.992-6.992V55.6c0-3.855,3.136-6.992,6.991-6.992H67.5  V14.496C67.5,13.118,66.379,11.996,65,11.996z"></path><path fill="none" d="M65,11.996H35c-1.378,0-2.5,1.122-2.5,2.5V76.5c0,1.379,1.122,2.5,2.5,2.5h19.779v-5.354  c0-2.437,1.131-5.846,3.228-7.438l2.729-2.601h-7.428c-3.855,0-6.992-3.137-6.992-6.992V55.6c0-3.855,3.136-6.992,6.991-6.992H67.5  V14.496C67.5,13.118,66.379,11.996,65,11.996z"></path><path d="M41.318,93.445V87.55c0-0.294-0.086-0.581-0.248-0.825L37.951,82h18.084c0.828,0,1.5-0.672,1.5-1.5  c0-0.018-0.006-0.035-0.006-0.053s0.006-0.035,0.006-0.053v-6.748c0-1.9,0.971-4.273,2.076-5.078l5.666-5.375  c0.002-0.004,0.004-0.006,0.006-0.01c0.138-0.133,0.248-0.289,0.328-0.467c0.002-0.007,0.006-0.012,0.008-0.018  c0.07-0.163,0.108-0.342,0.117-0.528c0-0.015,0.004-0.026,0.004-0.039c0-0.009,0.002-0.017,0.002-0.024  c0-0.176-0.035-0.342-0.09-0.498c-0.007-0.016-0.01-0.031-0.016-0.047c-0.068-0.176-0.171-0.334-0.297-0.472  c-0.006-0.006-0.008-0.013-0.012-0.019c-0.004-0.004-0.006-0.004-0.01-0.006c-0.133-0.139-0.289-0.25-0.467-0.328  c-0.006-0.002-0.011-0.006-0.018-0.01c-0.162-0.069-0.342-0.107-0.528-0.115c-0.015-0.002-0.026-0.004-0.039-0.004  c-0.009-0.002-0.017-0.004-0.024-0.004H53.062c-2.2,0-3.991-1.791-3.991-3.992V55.6c0-2.201,1.791-3.99,3.991-3.99H69.23h0.887  h0.142c3.085,2.166,7.075,11.205,3.467,24.959c-0.001,0.003-0.001,0.008-0.002,0.01c0,0.002-0.001,0.004-0.001,0.004  c-0.276,1.098-0.839,1.459-2.194,2.238l1.498,2.6c1.403-0.809,2.992-1.727,3.598-4.078c0.002-0.004,0.004-0.008,0.006-0.012  c4.75-16.274-1.466-27.364-6.374-29.132v-0.386V14.496c0-3.033-2.469-5.5-5.5-5.5h-30c-3.033,0-5.5,2.467-5.5,5.5v11.572h-1.903  c-3.133,0-5.682,2.549-5.682,5.682c0,2.893,2.174,5.282,4.973,5.632c-2.799,0.351-4.973,2.74-4.973,5.633  c0,3.132,2.549,5.681,5.682,5.681c-3.133,0-5.682,2.549-5.682,5.682c0,3.134,2.549,5.683,5.682,5.683  c-3.133,0-5.682,2.549-5.682,5.682s2.549,5.682,5.682,5.682h1.903V76.5c0,2.893,2.247,5.268,5.087,5.479L38.318,88v5.445   M29.256,68.801h-1.903c-1.687,0-3.06-1.373-3.06-3.06s1.373-3.06,3.06-3.06h1.903V68.801z M29.256,57.436h-1.903  c-1.687,0-3.06-1.373-3.06-3.061s1.373-3.061,3.06-3.061h1.903V57.436z M29.256,46.07h-1.903c-1.687,0-3.06-1.373-3.06-3.059  c0-1.688,1.373-3.06,3.06-3.06h1.903V46.07z M29.256,34.809h-1.903c-1.687,0-3.06-1.373-3.06-3.059s1.373-3.059,3.06-3.059h1.903  V34.809z M67.256,48.608H53.063c-3.855,0-6.991,3.136-6.991,6.992v1.016c0,3.855,3.137,6.992,6.992,6.992h7.428l-2.729,2.601  c-2.097,1.593-3.228,5.002-3.228,7.438V79H34.756c-1.378,0-2.5-1.121-2.5-2.5V14.496c0-1.378,1.122-2.5,2.5-2.5h30  c1.379,0,2.5,1.122,2.5,2.5V48.608z"></path><path d="M64.931,18.6c0-2.096-1.706-3.802-3.802-3.802H38.385c-2.096,0-3.802,1.705-3.802,3.802v53.345  c0,2.097,1.706,3.804,3.802,3.804h12.709l0.001-2.074h-12.71c-0.954,0-1.729-0.776-1.729-1.729V18.6  c0-0.953,0.776-1.728,1.729-1.728h22.744c0.953,0,1.729,0.775,1.729,1.728v26.362h2.073V18.6z"></path><path fill="#000000" d="M49.744,21.318c-4.695,0-8.504,3.808-8.504,8.504c0,4.694,3.809,8.502,8.504,8.502s8.504-3.809,8.504-8.502  C58.248,25.125,54.439,21.318,49.744,21.318z M49.002,33.459l-3.641-3.639l1.512-1.513l2.129,2.129l4.26-4.26l1.512,1.512  L49.002,33.459z"></path></svg>