<svg height='200' width='200'  fill="#000000" xmlns="http://www.w3.org/2000/svg" xmlns:xlink="http://www.w3.org/1999/xlink" version="1.1" x="0px" y="0px" viewBox="-255 347 100 100" style="enable-background:new -255 347 100 100;" xml:space="preserve"><path d="M-170.2,428.5l-11.9-26.4l-0.7,0.5c-0.2,0.2-0.4,0.4-0.6,0.6l-3,4.7c-0.9,1.5-2.5,2.4-4.3,2.5l-5.6,0.2  c-0.3,0-0.6,0.1-0.8,0.2l-0.8,0.4l-5.6,12.3l7.7,17c0.8,1.7,3.1,1.9,4.2,0.4l5.8-8.4c0.7-0.9,1.5-1.4,2.1-1l11.1,0.4  C-170.7,432-169.5,430.1-170.2,428.5z"></path><path d="M-202,413.4c-0.8,0.4-1.6,0.6-2.4,0.6c-0.9,0-1.7-0.2-2.5-0.6l-1.4-0.7l-3.6-1.8c-0.3-0.1-0.5-0.2-0.8-0.2l-5.6-0.2  c-1.7-0.1-3.3-1-4.3-2.5l-3-4.7c-0.2-0.2-0.4-0.4-0.6-0.6l-1.5-1l-12.1,26.9c-0.7,1.6,0.5,3.4,2.2,3.4h0.1l11.1-0.4h0.1  c0.8,0,1.5,0.4,2,1l5.8,8.4c0.5,0.7,1.2,1,2,1c0.9,0,1.8-0.5,2.2-1.4l9.3-20.5L-202,413.4L-202,413.4z"></path><path d="M-231.2,387.6c0.3,0.6,0.5,1.3,0.5,2l0.2,5.6c0,0.8,0.5,1.5,1.1,1.9l0.3,0.2l2.5,1.6l1.9,1.2c0.6,0.4,1.1,0.9,1.5,1.5l3,4.7  c0.4,0.7,1.1,1.1,1.9,1.1l5.6,0.2c0.7,0,1.4,0.2,2,0.5l0.3,0.2l4.7,2.4c0.3,0.2,0.7,0.3,1.1,0.3c0.4,0,0.8-0.1,1.1-0.3l3.3-1.7  l1.7-0.9c0.1-0.1,0.3-0.1,0.4-0.2c0.5-0.2,1.1-0.3,1.6-0.4l0.1,0l5.5-0.2c0.8,0,1.5-0.5,1.9-1.1l3-4.7c0.4-0.6,0.9-1.1,1.5-1.5  l1.1-0.7l3.6-2.3c0.7-0.4,1.1-1.1,1.1-1.9l0.2-5.6c0-0.7,0.2-1.4,0.5-2l2.6-5c0.4-0.7,0.4-1.5,0-2.2l-2.6-5c-0.3-0.6-0.5-1.3-0.5-2  l-0.2-5.6c0-0.8-0.5-1.5-1.1-1.9l-4.7-3c-0.6-0.4-1.1-0.9-1.5-1.5l-3-4.7c-0.4-0.7-1.1-1.1-1.9-1.1l-5.6-0.2c-0.7,0-1.4-0.2-2-0.5  l-5-2.6c-0.3-0.2-0.7-0.3-1.1-0.3c-0.4,0-0.8,0.1-1.1,0.3l-5,2.6c-0.6,0.3-1.3,0.5-2,0.5l-5.6,0.2c-0.8,0-1.5,0.5-1.9,1.1l-3,4.7  c-0.4,0.6-0.9,1.1-1.5,1.5l-4.7,3c-0.7,0.4-1.1,1.1-1.1,1.9l-0.2,5.6c0,0.7-0.2,1.4-0.5,2l-2.6,5c-0.4,0.7-0.4,1.5,0,2.2  L-231.2,387.6z M-204.5,360.4c11.7,0,21.1,9.5,21.1,21.1c0,11.7-9.5,21.1-21.1,21.1c-11.7,0-21.1-9.5-21.1-21.1  C-225.6,369.9-216.2,360.4-204.5,360.4z"></path><path d="M-204.5,400.3c10.4,0,18.8-8.4,18.8-18.8c0-10.4-8.4-18.8-18.8-18.8c-10.4,0-18.8,8.4-18.8,18.8  C-223.3,391.9-214.9,400.3-204.5,400.3z M-204.5,364c9.7,0,17.5,7.8,17.5,17.5c0,9.7-7.8,17.5-17.5,17.5c-9.7,0-17.5-7.8-17.5-17.5  C-222,371.9-214.2,364-204.5,364z"></path><polygon points="-212.2,391.5 -204.9,386.3 -197.7,391.5 -200.5,383 -193.2,377.7 -202.2,377.7 -204.9,369.2 -207.7,377.7   -216.7,377.7 -209.4,383 "></polygon></svg>