<?xml version="1.0" encoding="utf-8"?>
<!-- Generator: Adobe Illustrator 18.1.0, SVG Export Plug-In . SVG Version: 6.00 Build 0)  -->
<!DOCTYPE svg PUBLIC "-//W3C//DTD SVG 1.1//EN" "http://www.w3.org/Graphics/SVG/1.1/DTD/svg11.dtd">
<svg version="1.1" id="Layer_1" xmlns="http://www.w3.org/2000/svg" xmlns:xlink="http://www.w3.org/1999/xlink" x="0px" y="0px"
	 viewBox="0 0 138.1 13.2" enable-background="new 0 0 138.1 13.2" xml:space="preserve">
<g>
	<path fill="#ffffff" d="M60.7,11c-0.2-0.3-0.3-0.9-0.3-1.7V4.2c0-0.9-0.2-1.7-0.6-2.3c-0.4-0.6-0.9-1.1-1.6-1.4
		C57.4,0.2,56.6,0,55.8,0c-1,0-1.9,0.2-2.6,0.6c-0.7,0.4-1.3,1-2,1.7c0-0.1,0-0.2,0-0.3c0-0.1,0-0.2,0-0.3c0-0.5,0-1-0.1-1.6
		l-5.9,1.3v1.4c0.9,0,1.5,0.1,1.8,0.3c0.3,0.2,0.4,0.7,0.4,1.4v4.9c0,0.6-0.1,1.1-0.1,1.4c-0.1,0.3-0.3,0.5-0.6,0.6
		c-0.3,0.1-0.8,0.2-1.5,0.2v1.4h6.1V9.4V7.3V6c0-1.1,0.3-2,0.8-2.8C52.6,2.4,53.4,2,54.5,2c0.8,0,1.3,0.3,1.5,0.7
		c0.3,0.5,0.4,1.2,0.4,2v2.5v1.7v3.8h6v-1.4C61.5,11.5,60.9,11.3,60.7,11"/>
	<path fill="#ffffff" d="M28.2,11.4c-0.6,0-1-0.1-1.3-0.2c-0.3-0.2-0.4-0.4-0.5-0.7c-0.1-0.3-0.1-0.7-0.1-1.3V4.6
		c0-1.5-0.4-2.7-1.3-3.4C24.2,0.4,23,0,21.4,0c-0.9,0-1.8,0.2-2.6,0.5c-0.8,0.3-1.7,1.1-2.6,2.1c-0.4-1-1.1-1.7-2-2.1
		C13.3,0.2,12.4,0,11.4,0c-1,0-2,0.2-2.7,0.6C7.9,1,7.1,1.6,6.4,2.3c0-1,0-1.7-0.1-2.3L0,1.3v1.4h0.8c1.2,0,1.8,0.5,1.8,1.4v5.1
		c0,0.6,0,1.1-0.1,1.3c-0.1,0.3-0.3,0.5-0.5,0.6c-0.3,0.1-0.8,0.2-1.5,0.2v1.4h6V9.2V6.7V6.1c0-0.5,0-1,0.1-1.3C6.6,4.4,6.7,4,7,3.7
		c0.3-0.5,0.8-0.9,1.4-1.2C8.9,2.2,9.5,2,10.2,2c0.5,0,1,0.2,1.5,0.5c0.5,0.3,0.8,1,0.8,2v2.1v2.6v3.6h3.9V9.2V7.4V6.3
		c0-0.8,0.1-1.5,0.4-2.2c0.3-0.7,0.7-1.2,1.3-1.5C18.7,2.2,19.3,2,20.1,2c1,0,1.7,0.3,2,0.8c0.3,0.6,0.4,1.2,0.4,1.8v4.5
		c0,0.1,0,0.3,0,0.4v3.2h6.2v-1.4H28.2z"/>
	<path fill="#ffffff" d="M76.4,6.1h-9.1c0,0.2,0,0.6,0.1,1.2c0,0.6,0.2,1.2,0.4,1.9c0.2,0.6,0.6,1.2,1.2,1.6
		c0.6,0.4,1.3,0.7,2.3,0.7c0.5,0,1.2-0.1,1.9-0.4c0.7-0.3,1.4-0.8,1.9-1.5l1.2,0.8c-1.2,1.9-3,2.8-5.6,2.8c-1.1,0-2.2-0.2-3.1-0.5
		c-0.9-0.3-1.7-0.8-2.4-1.4c-0.6-0.6-1.1-1.3-1.5-2.1c-0.3-0.8-0.5-1.6-0.5-2.5c0-1.2,0.3-2.3,0.9-3.3c0.6-1,1.4-1.8,2.5-2.4
		C67.7,0.3,68.9,0,70.3,0c1.3,0,2.5,0.3,3.4,0.9c0.9,0.6,1.6,1.3,2.1,2.3C76.2,4.1,76.4,5.1,76.4,6.1 M72.8,4.8
		c0-2.3-0.9-3.4-2.7-3.4c-0.9,0-1.5,0.3-2,0.9c-0.5,0.6-0.7,1.4-0.8,2.4H72.8z"/>
	<path fill="#ffffff" d="M94.2,12.6c-0.3,0-0.8,0.1-1.5,0.1c-0.7,0-1.5,0.1-2.4,0.2c-0.9,0.1-1.6,0.2-2.1,0.3V11
		c-1.3,1.5-2.8,2.2-4.6,2.2c-1.3,0-2.3-0.3-2.9-0.8c-0.6-0.6-1-1.2-1.2-1.8c-0.1-0.7-0.2-1.4-0.2-2.1V4c0-0.6,0-1-0.1-1.3
		c-0.1-0.3-0.3-0.5-0.5-0.6c-0.3-0.1-0.8-0.2-1.5-0.2V0.5h5.9v8.2c0,1.7,0.6,2.5,1.9,2.5c0.7,0,1.4-0.3,1.9-0.8
		c0.5-0.5,0.9-1,1.2-1.5V4c0-0.6,0-1-0.1-1.3c-0.1-0.3-0.3-0.5-0.6-0.6C87.2,2,86.7,1.9,86,1.9V0.5h6v8.9c0,0.5,0,0.8,0.1,1
		c0.1,0.2,0.3,0.4,0.6,0.5c0.3,0.1,0.8,0.2,1.5,0.2V12.6z"/>
	<path fill="#ffffff" d="M109.8,1.9c-0.5,0-0.8,0.1-1,0.4c-0.2,0.3-0.6,0.8-1,1.7l-4.5,9h-2.1l-5.1-9.8c-0.3-0.6-0.5-1-0.7-1.1
		c-0.1-0.1-0.5-0.2-1-0.2V0.5h7.2v1.4c-0.5,0-0.9,0.1-1.1,0.1c-0.2,0.1-0.4,0.2-0.4,0.5c0,0.2,0.1,0.4,0.3,0.8l3.1,6l2.9-5.9
		c0.2-0.4,0.3-0.7,0.3-0.9c0-0.3-0.1-0.4-0.3-0.5c-0.2-0.1-0.6-0.1-1.1-0.1V0.5h4.5V1.9z"/>
	<path fill="#ffffff" d="M123.3,6.1h-9.1c0,0.2,0,0.6,0.1,1.2c0,0.6,0.2,1.2,0.4,1.9c0.2,0.6,0.6,1.2,1.2,1.6
		c0.6,0.4,1.3,0.7,2.3,0.7c0.5,0,1.2-0.1,1.9-0.4c0.7-0.3,1.4-0.8,1.9-1.5l1.2,0.8c-1.2,1.9-3,2.8-5.6,2.8c-1.1,0-2.2-0.2-3.1-0.5
		c-0.9-0.3-1.7-0.8-2.4-1.4c-0.7-0.6-1.2-1.3-1.5-2.1c-0.3-0.8-0.5-1.6-0.5-2.5c0-1.2,0.3-2.3,0.9-3.3c0.6-1,1.4-1.8,2.5-2.4
		c1.1-0.6,2.3-0.9,3.7-0.9c1.4,0,2.5,0.3,3.4,0.9c0.9,0.6,1.6,1.3,2.1,2.3C123.1,4.1,123.3,5.1,123.3,6.1 M119.7,4.8
		c0-2.3-0.9-3.4-2.7-3.4c-0.9,0-1.5,0.3-2,0.9c-0.5,0.6-0.7,1.4-0.8,2.4H119.7z"/>
	<path fill="#ffffff" d="M138.1,2.4c0,0.6-0.2,1-0.5,1.3c-0.3,0.3-0.8,0.5-1.2,0.5c-0.6,0-1.1-0.3-1.5-0.8c-0.2-0.2-0.4-0.4-0.5-0.5
		c-0.1-0.1-0.3-0.2-0.5-0.2c-0.8,0-1.4,0.4-1.8,1.2s-0.6,1.7-0.6,2.6v2.6c0,0.8,0.1,1.4,0.3,1.7c0.2,0.3,0.8,0.5,1.7,0.5h0.8v1.4
		H125v-1.4h0.8c0.8,0,1.3-0.2,1.5-0.5c0.2-0.3,0.3-0.9,0.3-1.7V4.8c0-0.7-0.1-1.1-0.2-1.4c-0.1-0.3-0.4-0.5-0.7-0.6
		c-0.3-0.1-0.9-0.1-1.6-0.1V1.4l5.7-1.3c0.1,0.5,0.3,1.6,0.4,3.2c0.3-0.6,0.6-1.1,1.1-1.6c0.4-0.5,0.9-0.9,1.5-1.2
		c0.6-0.3,1.1-0.4,1.7-0.4c0.8,0,1.4,0.2,1.9,0.7C137.8,1.2,138.1,1.8,138.1,2.4"/>
	<path fill="#ffffff" d="M42,10V9c0-0.1,0-0.3,0-0.4V4c0-1.2-0.4-2.2-1.2-2.9C40,0.4,38.5,0,36.4,0c-2,0-3.6,0.3-4.5,1
		s-1.5,1.5-1.5,2.4c0,0.5,0.2,0.8,0.5,1c0.3,0.2,0.7,0.3,1.1,0.3c0.7,0,1.1-0.1,1.3-0.4c0.2-0.3,0.4-0.7,0.4-1.1
		c0.1-0.6,0.3-1.1,0.7-1.4c0.3-0.3,0.9-0.5,1.6-0.5c0.9,0,1.5,0.2,1.8,0.6c0.3,0.4,0.5,0.9,0.5,1.6v0.8c-1.4,0.4-2.6,0.7-3.6,1.1
		c-1,0.3-1.8,0.7-2.5,1.2c-0.7,0.4-1.2,0.9-1.6,1.5C30.2,8.7,30,9.3,30,10c0,0.8,0.3,1.5,1,2c0.7,0.5,1.5,0.8,2.6,0.8
		c1.7,0,3.3-0.7,4.9-2c0.1,0.5,0.4,1,1,1.4c0.5,0.4,1.2,0.6,2,0.6l2.6,0v-1.4C43.2,11.5,42,11.3,42,10 M38.3,9.5
		c-0.5,0.4-0.9,0.7-1.3,0.9c-0.4,0.2-0.9,0.3-1.4,0.3c-0.5,0-0.9-0.1-1.2-0.4C34.1,10.1,34,9.7,34,9.2c0-0.5,0.3-1.1,0.8-1.7
		c0.5-0.6,1.7-1.1,3.5-1.7V9.5z"/>
</g>
</svg>
