<svg xmlns="http://www.w3.org/2000/svg" style="display: none;">

    <symbol id="icon-facebook-circle" viewBox="0 0 512 512">
      <path d="m256 28c-126 0-228 102-228 228c0 126 102 228 228 228c126 0 228-102 228-228c0-126-102-228-228-228z m53 228l-34 0l0 123l-51 0l0-123l-25 0l0-42l25 0l0-26c0-35 14-55 55-55l34 0l0 42l-21 0c-16 0-17 6-17 17l0 21l39 0z"/>
    </symbol>

    <symbol id="icon-facebook" viewBox="0 0 512 512">
      <path d="m354 256l-63 0l0 228l-94 0l0-228l-47 0l0-78l47 0l0-48c0-64 26-102 102-102l63 0l0 79l-40 0c-29 0-31 11-31 31l0 40l71 0z"/>
    </symbol>

    <symbol id="icon-linkedin-square" viewBox="0 0 512 512">
      <path d="m413 72l-314 0c-15 0-27 12-27 26l0 316c0 14 12 26 27 26l314 0c15 0 27-12 27-26l0-316c0-14-12-26-27-26z m-232 314l-55 0l0-176l55 0z m-27-200c-18 0-32-14-32-32c0-17 14-32 32-32c17 0 31 15 31 32c0 18-14 32-31 32z m232 200l-55 0l0-86c0-20 0-46-28-46c-29 0-33 22-33 45l0 87l-55 0l0-176l53 0l0 24l1 0c7-14 25-28 51-28c56 0 66 36 66 83l0 97z"/>
    </symbol>

    <symbol id="icon-google-plus-square" viewBox="0 0 512 512">
      <path d="m129 264c9 7 19 11 31 11c14-1 27-6 36-16c5-7 8-14 9-22c1-7 2-13 2-18c0-22-6-44-17-67c-5-10-12-19-21-26c-9-6-19-9-30-10c-15 1-28 7-38 18c-8 13-12 26-12 42c0 20 6 41 18 62c6 10 13 19 22 26z m34 84c-4-5-8-10-11-16c-4-6-5-13-5-21c0-5 0-9 2-13c1-3 2-6 3-9c-6 0-12 1-18 1c-26 0-47-8-62-23l0 99c13-6 27-10 42-13c19-3 36-4 49-5z m15 16c-4 0-8 0-13 0c-2-1-10 0-21 1c-12 1-24 4-36 7c-2 2-6 3-12 5c-5 3-10 6-15 10c-4 3-7 7-9 11l0 15c0 14 11 26 25 26l140 0c0-1 0-1 0-1c0-15-4-27-14-37c-9-10-24-22-45-37z m237-291l-318 0c-14 0-25 12-25 26l0 35c1-2 3-4 5-6c16-13 32-21 49-25c17-3 33-5 47-5l111 0l-34 20l-34 0c3 2 7 5 12 9c4 5 8 10 12 16c4 6 7 13 10 21c3 9 4 18 4 29c-1 20-5 36-13 48c-5 5-9 11-14 16c-5 4-10 9-16 14c-3 4-6 8-9 12c-3 5-5 10-5 16c0 6 2 10 5 14c3 4 6 7 8 10l19 15c12 10 22 20 31 32c8 12 13 27 13 46c0 8-1 15-3 23l145 0c14 0 25-12 25-26l0-314c0-14-11-26-25-26z m20 114l-58 0l0 58l-29 0l0-58l-58 0l0-29l58 0l0-58l29 0l0 58l58 0z"/>
    </symbol>

    <symbol id="icon-social-twitter" viewBox="0 0 512 512">
      <path d="m453 134c-14 6-30 11-46 12c16-10 29-25 35-44c-15 9-33 16-51 19c-15-15-36-25-59-25c-45 0-81 36-81 81c0 6 1 12 2 18c-67-3-127-35-167-84c-7 12-11 25-11 40c0 28 15 53 36 68c-13-1-25-4-36-11c0 1 0 1 0 2c0 39 28 71 65 79c-7 2-14 3-22 3c-5 0-10-1-15-2c10 32 40 56 76 56c-28 22-63 35-101 35c-6 0-13 0-19-1c36 23 78 36 124 36c149 0 230-123 230-230c0-3 0-7 0-10c16-12 29-26 40-42z"/>
    </symbol>

    <symbol id="icon-vimeo" viewBox="0 0 512 512">
      <path d="m405 72l-298 0c-19 0-35 16-35 35l0 298c0 19 16 35 35 35l298 0c19 0 35-16 35-35l0-298c0-19-16-35-35-35z m-24 117c-3 15-22 67-57 114c-15 19-33 39-56 52c-8 5-25 11-36 7c-8-4-13-10-18-19c-9-15-13-36-17-52c-4-15-8-29-12-41c-3-8-4-15-7-22c-1-1-1-1-1-1c0 0 0 0 1 1c-1-1-1-1-1-1c0 0 0 0 0 0c0-2-1-4-2-5c-9-15-22-1-35-3c-3 0-6-3-8-6c-1-1 1-3-4-4l0-1c20-15 37-34 59-46c7-4 19-9 28-6c8 2 15 9 18 19c0 0 0 0 0 0c1 0 2 4 2 5c4 11 6 26 8 37c2 17 2 44 12 59l0 0c1 0 3 4 4 6c17 17 29-7 36-20c5-10 10-21 11-31c1-6 1-10 0-14c-3-10-12-12-26-12c-1 0-3 0-5 0c12-38 49-54 60-55c13-2 32-2 41 9c2 3 3 5 4 8c3 7 2 14 1 22z"/>
    </symbol>

    <symbol id="icon-facebook-square" viewBox="0 0 512 512">
      <path d="m420 72l-328 0c-11 0-20 9-20 20l0 328c0 11 9 20 20 20l177 0l0-142l-48 0l0-56l48 0l0-41c0-48 29-74 71-74c20 0 38 2 43 3l0 49l-29 0c-23 0-28 11-28 27l0 36l55 0l-7 56l-48 0l0 142l94 0c11 0 20-9 20-20l0-328c0-11-9-20-20-20z"/>
    </symbol>

    <symbol id="icon-pinterest" viewBox="0 0 512 512">
      <path d="m256 56c-110 0-200 90-200 200c0 82 49 152 120 183c-1-14 0-31 3-46c4-16 26-109 26-109c0 0-6-13-6-31c0-30 17-52 38-52c18 0 27 14 27 30c0 18-12 45-18 71c-5 21 11 38 32 38c38 0 63-48 63-106c0-44-29-76-83-76c-60 0-98 45-98 95c0 18 5 30 13 39c4 5 4 6 3 11c-1 4-3 13-4 17c-1 5-6 6-10 5c-28-12-41-42-41-77c0-57 48-125 143-125c76 0 126 56 126 115c0 78-43 137-108 137c-21 0-41-12-48-25c0 0-12 46-14 55c-5 15-13 31-21 43c18 5 37 8 57 8c110 0 200-90 200-200c0-110-90-200-200-200z"/>
    </symbol>

    <symbol id="icon-linkedin-outline" viewBox="0 0 512 512">
      <path d="m256 0c-141 0-256 115-256 256c0 141 115 256 256 256c141 0 256-115 256-256c0-141-115-256-256-256z m0 472c-119 0-216-97-216-216c0-119 97-216 216-216c119 0 216 97 216 216c0 119-97 216-216 216z m-128-88l48 0l0-192l-48 0z m192-192c-41 1-61 31-64 32l0-32l-48 0l0 192l48 0l0-112c0-4 10-37 48-32c20 1 31 28 32 32l0 112l48 0l0-133c-2-19-11-58-64-59z m-168-64c-13 0-24 11-24 24c0 13 11 24 24 24c13 0 24-11 24-24c0-13-11-24-24-24z"/>
    </symbol>

    <symbol id="icon-twitter-outline" viewBox="0 0 512 512">
      <path d="m256 0c-141 0-256 115-256 256c0 141 115 256 256 256c141 0 256-115 256-256c0-141-115-256-256-256z m0 472c-119 0-216-97-216-216c0-119 97-216 216-216c119 0 216 97 216 216c0 119-97 216-216 216z m128-301c-4 2-17 8-29 9c7-5 19-19 22-31c-8 5-25 13-33 13c0 0 0 0 0 0c-10-11-23-18-38-18c-30 0-53 25-53 57c0 4 0 8 1 13l0 0c-39-2-86-23-112-59c-16 29-2 63 16 75c-6 0-17-1-23-7c0 20 9 46 41 56c-6 3-17 2-22 2c2 16 23 38 47 38c-8 11-37 30-73 24c24 16 53 25 83 25c85 0 151-74 147-166c0 0 0 0 0 0c0-1 0-1 0-1c0 0 0-1 0-1c8-6 19-16 26-29z"/>
    </symbol>

    <symbol id="icon-facebook-outline" viewBox="0 0 512 512">
      <path d="m256 0c-141 0-256 115-256 256c0 141 115 256 256 256c141 0 256-115 256-256c0-141-115-256-256-256z m0 472c-119 0-216-97-216-216c0-119 97-216 216-216c119 0 216 97 216 216c0 119-97 216-216 216z m61-255l-45 0l0-33c0-10 11-12 15-12c5 0 29 0 29 0l0-44l-33 0c-45 0-55 33-55 54l0 35l-33 0l0 45l33 0c0 58 0 122 0 122l44 0c0 0 0-65 0-122l38 0z"/>
    </symbol>

    <symbol id="icon-google-plus-outline" viewBox="0 0 512 512">
      <path d="m256 0c-141 0-256 115-256 256c0 141 115 256 256 256c141 0 256-115 256-256c0-141-115-256-256-256z m0 472c-119 0-216-97-216-216c0-119 97-216 216-216c119 0 216 97 216 216c0 119-97 216-216 216z m22-336c9-5 13-8 13-8l-84 0c-16 0-63 19-63 63c0 44 48 54 66 53c-10 12-2 23 4 29c5 5 4 7-2 7c-7 0-84 1-84 56c0 56 103 60 136 30c34-30 27-71 1-90c-26-19-36-27-19-42c16-15 30-27 30-54c0-28-23-42-23-42c0 0 16 3 25-2z m-13 197c0 24-20 36-55 36c-34 0-52-17-52-43c0-26 25-38 72-38c12 9 35 21 35 45z m-50-100c-41 0-60-97-11-97c38-1 66 97 11 97z m138-73l0-31l-17 0l0 31l-31 0l0 16l31 0l0 32l17 0l0-32l31 0l0-16z"/>
    </symbol>

    <symbol id="icon-pinterest-outline" viewBox="0 0 512 512">
      <path d="m256 0c-141 0-256 115-256 256c0 141 115 256 256 256c141 0 256-115 256-256c0-141-115-256-256-256z m0 472c-119 0-216-97-216-216c0-119 97-216 216-216c119 0 216 97 216 216c0 119-97 216-216 216z m6-344c-70 0-106 50-106 92c0 25 10 48 31 56c3 1 6 0 7-4c1-2 2-9 3-11c1-4 1-5-2-9c-6-7-10-16-10-28c0-38 28-71 73-71c40 0 61 24 61 56c0 43-18 79-46 79c-16 0-27-13-24-29c5-18 13-38 13-52c0-12-6-22-20-22c-15 0-28 16-28 38c0 14 5 23 5 23c0 0-17 69-19 81c-6 23-1 52-1 55c0 2 3 3 4 1c1-2 20-25 26-48c2-6 11-40 11-40c5 9 20 18 36 18c47 0 80-43 80-101c0-43-38-84-94-84z"/>
    </symbol>

    <symbol id="icon-snapchat" viewBox="0 0 512 512">
      <path d="m368 224c5-1 9-3 13-4c7 0 14 0 19 3c10 5 11 15 2 22c-7 5-16 8-24 11c-18 7-21 13-11 30c15 29 37 51 70 59c3 0 9 4 8 6c0 5-2 11-6 13c-11 5-22 9-34 12c-8 2-11 4-12 11c-4 15-7 17-21 14c-23-4-43 0-62 14c-40 28-69 28-108-1c-19-14-39-17-61-13c-16 3-18 1-22-14c-1-6-4-9-11-11c-11-2-23-6-33-11c-4-2-8-8-8-13c-1-2 6-7 11-8c35-10 57-34 71-66c4-8 1-13-5-17c-6-3-12-5-18-7c-4-2-8-4-12-6c-7-4-13-9-8-19c3-8 14-12 23-9c4 2 9 4 14 5c7 1 10-1 10-9c0-18-1-36 0-54c3-39 26-64 60-78c50-19 109-4 136 44c10 17 11 35 12 54c-1 12-1 23-2 35c-1 7 3 9 9 7z"/>
    </symbol>

    <symbol id="icon-youtube" viewBox="0 0 512 512">
      <path d="m231 360c-3 5-7 8-10 8c-2 0-3-1-4-4c0 0 0-2 0-6l0-65l-16 0l0 70c0 6 1 10 2 13c1 4 5 7 10 7c6 0 12-4 18-11l0 9l16 0l0-88l-16 0z m-88-81l19 0l0 102l18 0l0-102l19 0l0-17l-56 0z m109-78c6 0 8-4 8-12l0-38c0-8-2-12-8-12c-5 0-7 4-7 12l0 38c0 8 2 12 7 12z m42 91c-6 0-11 3-17 9l0-39l-16 0l0 119l16 0l0-8c6 6 11 10 17 10c6 0 11-4 13-10c1-4 2-10 2-18l0-36c0-8-1-14-2-17c-2-7-7-10-13-10z m-2 64c0 8-2 12-7 12c-2 0-5-1-8-4l0-54c3-3 6-4 8-4c5 0 7 4 7 12z m53-64c-8 0-14 3-19 9c-3 4-5 11-5 21l0 31c0 9 2 16 5 20c5 7 11 10 20 10c8 0 15-4 19-10c2-3 3-6 4-10c0-1 0-5 0-10l0-2l-16 0c0 6 0 10-1 10c0 5-3 7-7 7c-5 0-8-4-8-12l0-16l32 0l0-19c0-9-1-16-5-20c-4-6-11-9-19-9z m8 34l-16 0l0-8c0-8 3-12 8-12c5 0 8 4 8 12z m51-254l-296 0c-20 0-36 16-36 36l0 296c0 20 16 36 36 36l296 0c20 0 36-16 36-36l0-296c0-20-16-36-36-36z m-114 53l16 0l0 66c0 4 0 6 0 7c0 2 2 3 4 3c3 0 7-2 10-7l0-69l16 0l0 90l-16 0l0-10c-6 8-12 11-18 11c-6 0-9-2-11-6c-1-3-1-7-1-14z m-62 30c0-10 2-17 5-22c5-6 11-9 19-9c8 0 15 3 19 9c4 5 5 12 5 22l0 31c0 9-1 17-5 21c-4 6-11 9-19 9c-8 0-14-3-19-9c-3-4-5-12-5-21z m-43-60l13 47l12-47l18 0l-22 71l0 49l-18 0l0-49c-1-8-5-21-11-38c-3-11-7-22-11-33z m199 292c-3 14-14 24-28 26c-33 3-67 3-100 3c-33 0-67 0-100-3c-14-2-25-12-28-26c-5-20-5-42-5-63c0-21 0-43 5-63c3-14 15-25 28-26c33-4 67-4 100-4c33 0 67 0 100 4c14 1 25 12 28 26c5 20 5 42 5 63c0 21 0 43-5 63z"/>
    </symbol>

    <symbol id="icon-twitter" viewBox="0 0 512 512">
      <path d="m481 117c-13 18-28 34-46 47c0 3 0 7 0 12c0 25-3 50-11 74c-7 25-18 49-33 71c-14 23-32 43-52 61c-21 17-45 31-74 41c-29 11-60 16-92 16c-52 0-99-14-142-42c7 1 14 2 22 2c43 0 81-14 115-40c-20 0-38-6-54-18c-16-12-27-27-33-46c7 1 13 2 18 2c8 0 16-1 24-4c-21-4-39-15-53-31c-14-17-21-37-21-59l0-1c13 7 27 11 42 11c-13-8-23-19-30-32c-8-14-11-29-11-44c0-17 4-33 12-47c23 28 51 51 84 68c33 17 69 27 107 29c-2-8-3-15-3-22c0-25 9-47 27-65c18-18 40-27 66-27c26 0 49 10 67 29c21-4 40-11 59-22c-7 22-21 39-41 51c18-2 35-7 53-14z"/>
    </symbol>

    <symbol id="icon-twitter-square" viewBox="0 0 512 512">
      <path d="m402 174c-10 5-22 8-34 10c13-8 22-19 26-33c-12 7-25 12-38 14c-12-12-26-19-44-19c-16 0-30 6-42 18c-12 12-18 26-18 42c0 6 1 10 2 14c-25-1-48-8-69-19c-22-11-40-25-55-44c-6 10-9 20-9 30c0 22 9 39 26 50c-9 0-18-2-28-7l0 1c0 14 5 27 14 38c10 11 21 18 35 20c-5 2-10 3-14 3c-3 0-6-1-11-1c4 12 11 21 21 29c10 8 22 12 35 12c-23 17-47 26-75 26c-5 0-10 0-14-1c28 18 59 27 92 27c21 0 41-3 60-10c18-7 34-16 48-27c13-12 25-25 34-39c10-15 17-31 22-47c4-16 7-32 7-48c0-3-1-6-1-8c12-8 22-19 30-31z m73-55l0 274c0 23-8 42-24 58c-16 16-35 24-58 24l-274 0c-23 0-42-8-58-24c-16-16-24-35-24-58l0-274c0-23 8-42 24-58c16-16 35-24 58-24l274 0c23 0 42 8 58 24c16 16 24 35 24 58z"/>
    </symbol>

    <symbol id="icon-twitter-circle" viewBox="0 0 512 512">
      <path d="m256 10c68 0 126 24 174 72c48 48 72 106 72 174c0 68-24 125-72 174c-48 48-106 72-174 72c-68 0-125-24-174-72c-48-49-72-106-72-174c0-68 24-126 72-174c49-48 106-72 174-72m100 201c11-8 18-16 24-25c-11 4-20 7-28 8c10-7 18-15 22-27c-10 5-21 9-31 11c-10-9-21-14-36-14c-13 0-25 5-34 14c-9 10-14 21-14 34c0 1 0 2 1 5c0 3 0 5 0 6c-41-2-74-19-99-51c-5 8-7 16-7 25c0 17 7 30 22 40c-9 0-16-3-22-7c0 0 0 1 0 1c0 12 3 22 10 31c8 9 17 14 29 17c-6 1-10 2-13 2c-4 0-7-1-9-1c7 22 22 33 45 33c-17 14-37 21-60 21c0 0-12 0-12 0c24 14 48 21 74 21c42 0 75-14 100-42c26-28 38-60 38-96c0 0 0-6 0-6"/>
    </symbol>

    <symbol id="icon-linkedin-circle" viewBox="0 0 512 512">
      <path d="m256 10c68 0 126 24 174 72c48 48 72 106 72 174c0 68-24 125-72 174c-48 48-106 72-174 72c-68 0-125-24-174-72c-48-49-72-106-72-174c0-68 24-126 72-174c49-48 106-72 174-72m-60 347c0 0 0-159 0-159c0 0-50 0-50 0c0 0 0 159 0 159c0 0 50 0 50 0m-25-180c18 0 27-8 27-24c0-17-9-25-27-25c-7 0-14 2-19 7c-5 5-8 11-8 18c0 16 9 24 27 24m207 180c0 0 0-94 0-94c0-22-5-40-16-52c-11-11-24-17-41-17c-23 0-39 8-50 25c0 0-1 0-1 0c0 0-3-21-3-21c0 0-43 0-43 0c1 9 1 26 1 51c0 0 0 108 0 108c0 0 50 0 50 0c0 0 0-92 0-92c0-6 1-10 3-12c4-13 12-20 25-20c16 0 25 12 25 35c0 0 0 89 0 89c0 0 50 0 50 0"/>
    </symbol>

    <symbol id="icon-pinterest-square" viewBox="0 0 512 512">
      <path d="m393 37c23 0 42 8 58 24c16 16 24 35 24 58l0 274c0 23-8 42-24 58c-16 16-35 24-58 24l-207 0c16-23 26-43 31-60c2-6 7-26 15-59c4 7 11 14 21 19c10 5 21 8 32 8c35 0 63-14 85-42c21-28 32-64 32-107c0-16-3-31-10-46c-6-15-16-29-27-40c-12-12-27-21-44-28c-17-7-36-10-56-10c-20 0-38 2-56 8c-17 5-32 13-43 22c-12 9-23 19-31 31c-9 12-15 24-19 37c-4 12-6 25-6 37c0 20 3 37 11 52c8 15 19 25 33 31c3 1 5 1 7 0c2-1 3-2 4-5c2-9 3-14 4-18c2-4 1-8-3-12c-9-11-14-26-14-42c0-29 10-53 30-74c19-20 45-30 77-30c28 0 50 8 66 23c16 15 24 35 24 60c0 32-6 59-19 82c-13 22-30 33-50 33c-11 0-20-4-27-12c-7-8-10-18-7-30c2-6 4-15 8-26c3-11 6-21 8-29c2-8 3-16 3-21c0-10-2-18-7-24c-5-6-13-9-22-9c-12 0-21 5-30 16c-8 11-12 24-12 40c0 14 3 25 7 35l-28 118c-4 19-5 43-2 72l-52 0c-23 0-42-8-58-24c-16-16-24-35-24-58l0-274c0-23 8-42 24-58c16-16 35-24 58-24z"/>
    </symbol>

    <symbol id="icon-pinterest-circle" viewBox="0 0 512 512">
      <path d="m256 10c68 0 126 24 174 72c48 48 72 106 72 174c0 68-24 125-72 174c-48 48-106 72-174 72c-68 0-126-24-174-72c-48-49-72-106-72-174c0-68 24-126 72-174c48-48 106-72 174-72m16 303c28 3 50-8 66-32c16-25 21-53 17-83c-3-25-16-44-38-57c-21-13-46-17-74-14c-23 3-43 12-60 29c-18 16-27 36-27 60c-2 34 10 54 35 59c4-8 5-13 5-16c0-4-2-8-5-13c-3-5-5-9-6-14c-4-32 9-57 40-73c32-17 59-14 81 9c17 16 20 42 10 76c-9 34-26 49-50 44c-13-3-19-12-17-28c3-16 7-30 13-44c5-14 2-24-11-31c-14-6-26 0-33 17c-8 18-8 33 0 46c-1 7-5 21-11 42c-5 22-9 37-9 45c0 8 0 25 1 50c17-13 31-42 40-88c15 10 27 16 33 16"/>
    </symbol>

    <symbol id="icon-instagram-circle" viewBox="0 0 512 512">
      <path d="m256 28c-126 0-228 102-228 228c0 126 102 228 228 228c126 0 228-102 228-228c0-126-102-228-228-228z m97 291c0 20-16 37-36 37l-122 0c-20 0-36-17-36-37l0-59l45 0c6 22 27 39 52 39c25 0 46-17 53-39l44 0z m-127-75c0-16 13-30 30-30c17 0 30 14 30 30c0 17-13 31-30 31c-17 0-30-14-30-31z m127-15l-45 0c-6-23-27-39-52-39c-25 0-46 17-53 39l-44 0l0-31c0-20 16-37 36-37l121 0c21 0 37 17 37 37z"/>
    </symbol>

    <symbol id="icon-instagram" viewBox="0 0 512 512">
      <path d="m389 256c0-9-1-17-3-26c0 0 90 0 90 0c0 0 0 177 0 177c0 19-6 35-20 49c-13 13-29 20-48 20c0 0-304 0-304 0c-19 0-35-7-48-20c-14-14-20-30-20-49c0 0 0-177 0-177c0 0 89 0 89 0c-1 11-2 20-2 26c0 36 13 67 39 94c26 26 57 39 94 39c36 0 67-13 94-39c26-27 39-58 39-94m19-220c19 0 35 6 48 20c14 13 20 29 20 48c0 0 0 75 0 75c0 0-111 0-111 0c-27-37-63-56-109-56c-47 0-83 19-109 56c0 0-111 0-111 0c0 0 0-75 0-75c0-19 6-35 20-48c13-14 29-20 48-20c0 0 304 0 304 0m32 85c0 0 0-37 0-37c0-8-4-12-12-12c0 0-37 0-37 0c-8 0-12 4-12 12c0 0 0 37 0 37c0 3 1 5 3 8c3 3 6 4 9 4c0 0 37 0 37 0c8 0 12-4 12-12m-102 135c0 23-8 42-24 58c-16 16-35 24-58 24c-23 0-42-8-58-24c-16-16-24-35-24-58c0-23 8-43 24-58c16-16 35-24 58-24c23 0 42 8 58 24c16 15 24 35 24 58"/>
    </symbol>

    <symbol id="icon-mail-circle" viewBox="0 0 512 512">
      <path d="m256 0c-141 0-256 115-256 256c0 141 115 256 256 256c141 0 256-115 256-256c0-141-115-256-256-256z m0 472c-119 0-216-97-216-216c0-119 97-216 216-216c119 0 216 97 216 216c0 119-97 216-216 216z m0-296l-128 0l0 160l256 0l0-160z m0 16l90 0l-90 64l-90-64z m-112 5l55 36l-55 60z m112 123l-92 0l45-79l47 31l47-31l45 79z m112-27l-54-60l54-36z"/>
    </symbol>

    <symbol id="icon-mail" viewBox="0 0 512 512">
      <path d="m448 80l-384 0c-35 0-64 29-64 64l0 208c0 35 29 64 64 64l384 0c35 0 64-29 64-64l0-208c0-35-29-64-64-64z m-416 84l112 84l-112 84z m448 188c0 18-14 32-32 32l-384 0c-18 0-32-14-32-32l125-94l70 52c9 7 19 10 29 10c10 0 20-3 29-10l70-52z m0-20l-112-84l112-84z m-205-34c-5 4-12 6-19 6c-7 0-14-2-19-6l-66-50l-14-10l-125-94l0 0c0-18 14-32 32-32l384 0c18 0 32 14 32 32z"/>
    </symbol>

    <symbol id="icon-letter-mail-square" viewBox="0 0 512 512">
      <path d="m485 97l-5-1l-448 0l-3 1l227 202z m25 20l-161 143l159 139c2-5 4-9 4-15l0-256c0-4-1-7-2-11m-508-1c-1 3-2 8-2 12l0 256c0 5 1 9 3 13l161-138z m254 225l-68-60l-158 135l2 0l447 0l-155-135z"/>
    </symbol>

    <symbol id="icon-letter" viewBox="0 0 512 512">
      <path d="m440 103l-368 0c-7 0-13 6-13 13l0 27c0 1 1 2 2 3l194 110c0 1 1 1 1 1c1 0 2 0 2-1l188-110c1-1 3-2 5-3c1-1 2-1 2-3l0-24c0-7-6-13-13-13z m11 80c-1-1-2-1-3 0l-106 62c-1 0-1 1-2 2c0 1 1 2 1 3l106 115c1 0 2 1 3 1c0 0 1-1 1-1c1 0 2-1 2-3l0-177c0-1 0-2-2-2z m-140 83c-1-1-2-1-4-1l-42 25c-5 3-12 3-17 1l-37-22c-1-1-3 0-4 1l-142 131c-1 1-1 2-1 3c0 1 1 2 1 3c3 1 5 2 7 2l364 0c2 0 3-1 3-2c1-2 1-3 0-4z m-135-12c1-1 1-2 1-3c0-1-1-2-2-2l-111-64c-1-1-2 0-4 0c-1 1-1 2-1 3l0 167c0 1 1 2 2 3c0 0 1 0 1 0c1 0 2 0 2-1z"/>
    </symbol>

    <symbol id="icon-google-plus" viewBox="0 0 512 512">
      <path d="m228 227c0 7 3 14 9 21 7 6 14 13 23 19 8 6 17 13 25 21 9 8 16 18 22 30 7 12 10 25 10 40 0 17-5 34-14 50-14 23-34 40-60 51-27 11-55 16-86 16-25 0-48-4-70-11-22-8-38-21-49-40-7-11-11-24-11-37 0-16 5-30 13-43 9-13 20-24 34-33 25-15 63-25 115-28-6-8-10-15-13-22-3-6-5-13-5-20 0-7 2-15 6-25-8 1-15 1-19 1-28 0-52-9-71-27-20-19-29-42-29-70 0-16 3-31 10-45 7-15 16-28 28-38 15-12 32-22 52-28 21-6 41-9 63-9l119 0-39 25-38 0c14 12 25 25 32 38 7 13 11 29 11 46 0 14-2 26-7 37-5 11-10 20-17 26-6 7-13 13-20 19-6 6-12 11-17 18-4 6-7 12-7 18z m-41-27c7 0 14-2 22-5 7-3 14-7 19-12 10-11 15-26 15-46 0-11-2-23-5-35-3-13-8-25-14-37-6-12-14-22-24-30-10-8-21-12-33-12-8 0-16 2-24 6-8 4-14 9-19 15-9 11-13 26-13 46 0 8 1 18 3 28 2 9 5 19 9 29 4 10 9 19 15 26 5 8 13 15 21 20 8 5 18 7 28 7z m0 249c11 0 22-1 32-3 10-3 20-6 28-11 9-5 16-12 21-21 5-9 8-20 8-31 0-5-1-10-2-14-1-5-3-9-4-12-2-4-4-8-8-12-4-5-6-8-8-10-2-2-6-6-11-10-6-5-9-7-11-8-1-2-5-4-12-9-6-5-9-7-10-7-3-1-8-1-14-1-10 0-20 1-30 2-10 1-20 4-30 7-11 4-20 8-28 13-8 6-15 13-20 22-5 8-7 18-7 30 0 13 3 25 10 35 6 10 15 18 26 24 10 5 22 10 34 12 12 3 24 4 36 4z m232-250l60 0 0 31-60 0 0 63-30 0 0-63-61 0 0-31 61 0 0-62 30 0z"/>
    </symbol>

    <symbol id="icon-linkedin" viewBox="0 0 512 512">
      <path d="m136 179l0 283-94 0 0-283z m6-88c0 14-4 26-14 35-10 9-23 14-39 14l0 0c-16 0-29-5-38-14-10-9-14-21-14-35 0-14 4-26 14-35 10-9 23-14 39-14 16 0 28 5 38 14 9 9 14 21 14 35z m333 208l0 163-94 0 0-152c0-20-3-35-11-47-8-11-20-17-36-17-12 0-22 4-30 10-9 7-15 15-19 25-2 5-3 13-3 23l0 158-94 0c1-76 1-138 1-185 0-47 0-76 0-85l-1-13 94 0 0 41 0 0c4-6 7-12 11-16 4-5 10-10 17-15 6-5 15-10 24-13 10-3 21-4 33-4 33 0 59 11 79 32 20 22 29 54 29 95z"/>
    </symbol>

    <symbol id="icon-globe" viewBox="0 0 512 512">
      <path d="m256 28c-126 0-228 102-228 228c0 126 102 228 228 228c126 0 228-102 228-228c0-126-102-228-228-228z m-185 228c0-39 12-75 33-105c3-1 7-2 9-1c3 2 2 3 2 7c1 6 2 13 10 9c7-4 5-15 9-21c3-4 7-9 10-12c5-4 9-6 9-12c1-7-5-9-11-10c8-7 16-12 26-17c2 1 5 5 4 9c-2 3-10 3-8 10c10 5 33-18 32 4c-9 3-30 6-31 18c-1 12 20 9 27 8c9-1 16-3 23-9c9-6 23-18 25-28c4-18-23-9-29-17c-2-3-2-7-1-11c0 0 0 0 0-1c15-4 30-6 46-6c22 0 43 4 62 11c-8 13-3 36-3 50c0 8-4 8-9 13c-5 6-10 10-17 9c-16-3-31-10-45 3c-5 5-10 9-10 17c0 5-2 13 4 15c3 2 12 2 15-1c4-3 4-10 6-15c3-6 11-9 15-3c3 6 1 12-2 17c-5 7-8 10-16 13c-2 1-4 3-7 2c-3-1-4-4-6-5c-6-2-12 4-15 7c-4 4-9 6-15 7c-4 1-13-1-10 7c1 5 7 5 6 13c-7 0-17-2-21 3c-2 3-7 18-5 21c2 4 12 3 16 3c6 1 12 0 13-7c4-2 5-6 8-8c3-2 6-3 10-3c12-2 13 5 18 13c4 6 10 11 10 1c-1-8-8-12-7-21c7-2 9 7 11 12c2 4 3 7 6 10c1 2 3 4 5 6c2-6 6-10 8-15c2-5 5-10 9-14c7-7 36-7 25 5c-5 4-36 11-26 20c4 5 14 0 19 3c5 2 2 9 2 14c0 1 0 2 0 3c-13 7-36 3-48 2c-9 0-15-4-22-9c-7-5-11-6-20-7c-22-1-39 3-56 17c-16 13-23 29-19 50c6 35 45 29 72 31c11 1 13 2 17 12c3 9 6 17 8 26c2 8 2 17 3 25c1 8 2 13 6 17c-100-3-180-85-180-185z m242 176c7-4 11-8 18-13c3-2 6-2 8-6c2-5-1-8-3-13c-4-10 4-14 10-21c7-6 12-15 16-23c4-6 10-20 10-26c-8 0-17 4-26 3c-11-2-19-9-25-16c-7-7-11-16-10-26c0-4 0-5 3-6c5 6 14 9 19 16c4 5 6 9 11 13c3 2 5 6 8 9c4 4 13 1 17-3c6-5 5-11 7-17c1-5 4-7 6-12c1-5 0-11 0-15c-5-1-8 0-12 2c-3 2-3 5-8 5c-7 0-11-8-12-15c6-3 15-2 22-2c7 0 13-1 19-4c11-5 19 0 28 6c5 4 12 14 16 8c4-5 2-16 2-22c0-3 1-6 1-10c1-2 1-4 2-5c1 5 1 11 1 17c0 82-54 152-128 176z"/>
    </symbol>

    <symbol id="icon-globe-black" viewBox="0 0 512 512">
      <path d="m256 28c-126 0-228 102-228 228c0 126 102 228 228 228c126 0 228-102 228-228c0-126-102-228-228-228z m-84 75c1-4-2-8-5-9c16-9 39-15 43-17c0 1 0 1 0 1c-1 4-1 8 1 11c6 8 33-1 29 16c-2 10-16 23-24 29c-8 6-15 8-24 9c-7 1-28 4-27-8c1-12 22-15 31-19c1-21-22 2-32-3c-1-7 6-7 8-10z m-38 42c-4 6-2 17-9 21c-8 4-9-2-10-9c0-4 1-5-2-7c-2-1-6 0-9 1c11-15 23-29 38-40c6 1 12 3 12 10c-1 6-5 8-9 12c-4 3-8 8-11 12z m116 296c-3-4-4-9-5-16c-1-9-1-18-3-26c-2-9-6-17-8-26c-4-10-6-11-17-12c-27-2-66 4-72-31c-4-21 3-37 19-50c17-14 34-17 56-17c9 1 13 2 20 7c7 5 13 9 22 9c12 1 35 5 48-2c0-1 0-2 0-3c0-4 3-12-2-14c-5-3-14 2-19-3c-10-9 21-16 26-20c12-12-18-12-25-5c-4 4-7 9-9 14c-2 6-5 10-8 15c-1-2-4-4-5-6c-3-3-4-6-5-9c-3-6-5-15-13-13c0 9 7 13 8 21c0 10-6 5-10-1c-5-7-6-15-18-13c-5 0-7 1-10 3c-3 3-4 6-8 8c-1 7-7 8-13 8c-4-1-14 0-16-4c-2-3 3-18 5-21c4-5 14-3 21-3c1-8-5-8-6-13c-3-8 6-6 10-7c6-1 11-3 15-7c3-3 9-9 15-7c2 1 3 4 6 5c3 1 5-1 7-2c8-2 12-6 16-13c3-5 6-11 2-17c-4-6-12-3-15 3c-2 5-2 12-6 15c-3 3-11 3-15 1c-6-2-4-10-4-15c1-8 6-12 11-17c13-13 28-6 44-3c7 1 12-3 17-9c5-5 9-5 9-13c0-14-4-37 4-50c66 24 114 85 121 157c-1 2-2 3-2 6c-1 3-1 6-1 10c0 5 2 17-2 21c-5 6-12-4-17-7c-9-7-16-12-27-7c-7 3-12 5-20 5c-6 0-15-2-21 2c0 6 4 14 12 14c5 0 4-3 8-5c3-2 7-2 11-2c1 4 1 11 0 15c-1 5-5 7-6 12c-1 6-1 13-6 17c-5 4-13 8-17 4c-4-3-5-7-9-10c-5-4-6-7-10-13c-5-7-15-10-20-16c-2 2-2 2-3 6c0 10 4 19 10 26c7 7 15 14 25 16c9 1 19-3 26-3c1 7-6 20-9 26c-5 8-10 17-16 24c-7 7-14 11-10 20c2 5 4 8 2 13c-1 4-4 4-8 7c-6 4-10 8-16 12c-18 6-38 9-58 9c-2 0-4 0-6 0z"/>
    </symbol>

</svg>
