<?xml version="1.0" encoding="utf-8"?>
<!-- Generator: Adobe Illustrator 21.1.0, SVG Export Plug-In . SVG Version: 6.00 Build 0)  -->
<svg version="1.1" id="Layer_1" xmlns="http://www.w3.org/2000/svg" xmlns:xlink="http://www.w3.org/1999/xlink" x="0px" y="0px"
	 viewBox="0 0 200 200" style="enable-background:new 0 0 200 200;" xml:space="preserve">
<style type="text/css">
	.st0{fill:#685A63;}
</style>
<path class="st0" d="M156,66c0-31-25-56-56-56S44,35,44,66c0,0.2,0,0.6,0,0.8l0,0c0,2.2,0.2,4.8,0.6,7.6c0,0.2,0,0.2,0,0.4
	c5.8,37,55.4,61.6,55.4,115.2c0-53.6,49.6-78.2,55.4-115.4c0-0.2,0-0.2,0-0.4c0.4-2.8,0.6-5.2,0.6-7.6l0,0C156,66.6,156,66.2,156,66
	z M100,97c-16.6,0-30-13.4-30-30s13.4-30,30-30s30,13.4,30,30S116.6,97,100,97z"/>
</svg>
