<svg xmlns="http://www.w3.org/2000/svg" viewBox="0 0 42 50.63"><title>Asset 2</title><path d="M21,0A21,21,0,0,0,6.08,35.78L20.93,50.63,34.35,37.21A21,21,0,0,0,21,0ZM10.52,33.15l-.88-.89a16,16,0,1,1,21.53,1.09l-.19.16-10,10Z"/><path d="M21,3.75a17.26,17.26,0,0,0-8.19,32.44c.47.25,1,.49,1.45.7A17.35,17.35,0,0,0,27.51,37a16.13,16.13,0,0,0,1.68-.79A17.26,17.26,0,0,0,21,3.75Zm0,26.5A9.25,9.25,0,1,1,30.25,21,9.25,9.25,0,0,1,21,30.25Z"/><polygon points="32.91 36.19 21 48.1 9.09 36.19 32.91 36.19"/></svg>